<?xml version="1.0" encoding="UTF-8"?><svg id="Layer_1" xmlns="http://www.w3.org/2000/svg" viewBox="0 0 409.6 409.6"><polygon points="360.8 342.53 396.8 342.53 396.8 67.87 108 67.87 108 55.89 409.6 55.89 409.6 354.51 0 354.51 0 55.89 110.87 55.89 110.87 67.87 12.8 67.87 12.8 342.53 340 342.53 360.8 342.53"/><polygon points="334.22 318.73 364.08 318.73 364.08 90.87 124.49 90.87 124.49 80.93 374.7 80.93 374.7 328.67 34.9 328.67 34.9 80.93 126.88 80.93 126.88 90.87 45.52 90.87 45.52 318.73 316.96 318.73 334.22 318.73"/><rect x="86.4" y="250.31" width="236.8" height="11.58"/><rect x="86.4" y="215.58" width="198.4" height="12.78"/><rect x="145.6" y="283.45" width="177.6" height="11.98"/><polygon points="323.2 215.58 323.2 228.35 301.6 228.35 301.6 216.78 302.8 215.58 323.2 215.58"/><rect x="180.03" y="135.73" width="49.54" height="12.78"/><rect x="159.35" y="161.28" width="90.89" height="11.98"/><rect x="86.4" y="283.45" width="16.8" height="11.98"/><rect x="116" y="283.45" width="16.8" height="11.98"/></svg>