<?xml version="1.0" encoding="UTF-8"?><svg id="Layer_1" xmlns="http://www.w3.org/2000/svg" viewBox="0 0 409.6 337.6"><path d="M0,114.98h264.8v174.06H114l-57.6,48.7h-14v-47.51c-.7-1.14-1.59-1.1-2.76-1.24-12.19-1.43-27.15,1.15-39.64.04V114.98ZM252.8,126.95H12v150.11h41.2l1.2,1.2v45.11l54.8-46.31h143.6V126.95Z"/><path d="M409.6.8v162.08c-5.83.66-13.33-1.45-18.4,1.2v47.51h-14l-37.6-48.7h-68.4v-11.98h74.8l33.2,43.12v-41.92l1.2-1.2h17.2V12.78H120.8v95.41c-3.01,2.49-8.21.67-12,1.2V.8h300.8Z"/><rect x="216.8" y="91.02" width="129.6" height="11.98"/><rect x="150.4" y="60.68" width="78.4" height="11.98"/><rect x="223.2" y="31.14" width="68.8" height="11.98"/><rect x="240.8" y="60.68" width="66.4" height="11.98"/><rect x="150.4" y="91.02" width="54.4" height="11.98"/><path d="M211.2,31.14l-.35,11.23c-.99,1.42-9.54.77-11.7.4l-.75-11.63h12.8Z"/><rect x="150.4" y="31.14" width="12" height="11.98"/><path d="M186.4,31.14v11.98l-11.25-.35c-1.63-1.13-.35-9.27-.75-11.63h12Z"/><path d="M198.4,211.59v11.98H37.2c-2.49-3-.67-8.19-1.2-11.98h162.4Z"/><path d="M120.8,162.88H36v-11.98h83.6c2.49,3,.67,8.19,1.2,11.98Z"/><rect x="78.4" y="181.25" width="66.4" height="11.98"/><rect x="108.8" y="241.13" width="60" height="11.98"/><rect x="36" y="181.25" width="30.4" height="11.98"/><rect x="36" y="241.13" width="24" height="11.98"/><rect x="72" y="241.13" width="24" height="11.98"/></svg>