<?xml version="1.0" encoding="UTF-8"?><svg id="Layer_1" xmlns="http://www.w3.org/2000/svg" viewBox="0 0 384.38 382.15"><path d="M311.28,112.3l-15.78-15.74-228.05,227.55,3.23,12.19,11.46,4.46,229.14-228.47ZM84.38,354.46c-3.74,2.6-13.89,5.11-18.74,6.75-21.75,7.33-43.75,14.06-65.64,20.94l28.49-82.72L242.3,86.21,327.75.4l.39-.4,56.24,56.17-.38.37L84.38,354.46ZM240.42,103.69L43.1,300.59l3.6,11.75,11.83,4.31,229.12-227.92-15.77-16.45-31.46,31.42ZM328.12,16.13l-31.82,32.45,39.97,39.35,31.25-31.76-39.4-40.03ZM287.73,56.59l-7.96,7.81,40.11,39.32,7.8-8-39.95-39.13ZM38.43,321.33s-1.9-5.94-2.44-6.55c-1.18.78-7.49,19.54-8.09,21.23l18.2,18.5s15.89-4.32,22.9-6.05c-3.02-1.55-6.8-3.51-6.8-3.51,0,0-5.08-15.74-6.9-17.24-3.28-1.99-16.86-6.38-16.86-6.38ZM34.87,359.31l-11.31-11.15-5.56,16.77,16.87-5.62Z"/></svg>