<?xml version="1.0" encoding="UTF-8"?><svg id="Layer_1" xmlns="http://www.w3.org/2000/svg" viewBox="0 0 513.43 510.88"><path d="M351.97,57.34c-9.57-8.21-20.03-15.43-30.55-22.45-18.47-12.31-36.17-19.85-53.07-25.8C241.33-.44,212.61-1.39,184,1.31l-2.36.35.85,40.66c32.99-.85,79.37,1.86,91.04,39.46,7.19,23.15-.57,41.65-15.96,58.89l20.86,21.01-77.48,83.66L0,459.81l55.52,51.07,25.9-28.22,12.61-13.29,240.11-255.99,15,12.91,21.37,19.31,56.35,52.64,86.57-90.86-52.44-49.2-17.48-17.07s-78.41-72.54-91.53-83.78ZM54.14,489.24l-32.66-30.4,179-191.03,10.52-11.52,80.47-83.53,22.08,20.17.04-.04,9.42,9.56L54.14,489.24ZM382.01,238.01l-59.98-56.7-.04.04-43.38-41.75c2.91-6.88,7.39-12.79,9.61-20.07,6.15-20.2,3.06-42.15-8.9-59.54-18.13-26.31-51.9-32.21-81.83-32.67v-12.02c31.22-1.33,62.01,4.77,90,18.01,3.42,1.62,10.17,5.09,13.43,7.02,9.46,5.61,26.12,17.54,34.67,24.47,29.48,23.91,112.47,104.11,112.47,104.11,0,0-61.53,64.6-66.04,69.11ZM426.01,277.13l-32.12-30.87,64.1-68.77,32.44,31.18-64.42,68.46Z"/><polygon points="320.28 180.51 310.93 191.13 309.86 190.05 319.33 179.59 320.28 180.51"/></svg>