<?xml version="1.0" encoding="UTF-8"?><svg id="Layer_1" xmlns="http://www.w3.org/2000/svg" viewBox="0 0 410.88 398.62"><path d="M264.86,395.85c-30.14-25.03-31.47-25.87-31.47-25.87v25.43h-52.33v-23.95s-22.78,17.67-30.95,24.18h-19.02c12.64-12.13,49.91-43.02,49.91-43.02l.06-51.57V109.12l-36.28-38.91h-78.95l-43.06,36.3h-11.6V6.48h388.54v100.03h-11.6l-43.64-36.3h-75.56l-35.53,38.4v192.44l.26,51.32c14.02,11.31,39.54,33.1,51.64,43.15l-20.42.34ZM386.91,18.46H23.97v75.28s25.6-22.49,25.6-23.13v-12.38h311.74v12.38l25.6,23.13V18.46ZM181.06,70.21h-18.28l18.28,19.91v-19.91ZM220.58,70.21h-26.72v313.22h26.72V70.21ZM250.9,70.21h-17.53v19.14l17.53-19.14Z"/></svg>