<?xml version="1.0" encoding="UTF-8"?><svg id="Layer_1" xmlns="http://www.w3.org/2000/svg" viewBox="0 0 384 384"><path d="M384,17.96v275.46h-130.5s9.1,36.58,9.1,36.58l23.94.43,8.96,34.85H88.5l8.96-34.85,23.94-.43,9.1-36.58H0V17.96h384ZM234,29.19H11.25v192l-.02,1.12h361.51v-1.12s0-192,0-192h-138.75ZM108,233.54H11.25v48.65h361.5v-48.65H108ZM204,330.11h46.5l-9.47-36.58-98.57.23-8.96,36.35h70.5ZM106.88,341.33l-3.38,12.73h177l-3.38-12.73H106.88Z"/><rect x="159" y="252.26" width="66" height="11.23"/></svg>