<?xml version="1.0" encoding="UTF-8"?><svg id="Layer_1" xmlns="http://www.w3.org/2000/svg" viewBox="0 0 409.6 409.6"><circle cx="214.45" cy="139.34" r="44.55" fill="none" stroke="#000" stroke-miterlimit="10" stroke-width="14.37"/><path d="M135.34,310.01c-36.66-57.92-69.46-129.87-55.15-200.13C101.28,6.33,229.54-30.93,307.93,37.57c62.11,54.27,49.39,144.96,18.84,212.48-26.49,58.54-67.39,112.4-112.52,157.75-24.82-25.74-48.22-52.94-68.33-82.56l-10.57-15.23ZM206.89,16.84c-48.49,3.62-94.08,35.14-109.09,81.99-29.39,91.74,44.01,207.74,103.05,273.7,1.87,2.09,12.51,14.52,14.22,14.23,44.26-48.36,86.52-105.03,108.68-167.39,18.96-53.35,23.79-118.66-17.25-163.18-23.39-25.38-65.12-41.92-99.61-39.34Z"/></svg>