<?xml version="1.0" encoding="UTF-8"?><svg id="Layer_1" xmlns="http://www.w3.org/2000/svg" viewBox="0 0 367.17 374.06"><path d="M61.69,360.75l-11.27,3.6,1.84-12.66,10.93-63.34C3.16,224.05,3.36,123.41,63.4,59.07,150.07-33.8,305.44.94,345.19,120.88c43.05,129.89-79.09,252.37-208.79,213.71l-74.71,26.15ZM68.04,344.17l69.2-24.98c110.51,35.24,219.62-57.84,199.03-172.97C318.18,45.05,204.33-10.19,113.37,39.22,29.25,84.92,6.76,195.86,67.54,270.54c5.27,6.48,11.86,14.14,11.86,14.14l-11.36,59.49Z"/><path d="M135.56,78.46c5.33-.91,9.39.74,13.51,3.96,8.87,6.92,28.55,27.03,35.96,35.9,12.34,14.74.82,22.51-9.59,32.87l30.42,30.5c.59.67.92.76,1.73.34,2.14-1.11,7.02-7.58,9.58-9.63,7.84-6.28,14.62-5.98,22.27.33,9.41,7.77,28.16,26.52,35.93,35.93,5.69,6.9,6.46,13.51.95,20.83l-36.07,35.79c-4.58,2.72-11.13.11-15.89-1.5-46.26-15.58-115.3-84.58-130.39-131.04-2.33-7.18-4.4-10.88.69-17.15,4.67-5.76,31.21-32.54,36.49-35.37,1.25-.67,3.04-1.51,4.41-1.75ZM138.23,93.4l-31.1,31.18c-.24,1.21,4.5,12.19,5.44,14.18,18.02,38.23,72.08,93.2,111.48,108.89,2.35.94,8.14,3.73,10.22,2.77l30.81-30.81-36.7-36.56c-8.36,4.25-16.77,24.35-27.3,15.03l-42.67-42.88c-1.2-2.32-1.2-5.72,0-8.04l17.01-17.2-37.19-36.56Z"/></svg>